HIERARCHY
ROOT hip
{
	OFFSET 0.00000 0.00000 0.00000
	CHANNELS 6 Xposition Yposition Zposition Zrotation Yrotation Xrotation 
	JOINT rightuplegdummy
	{
		OFFSET 0 0 0
		CHANNELS 3 Zrotation Yrotation Xrotation
		JOINT rightupleg
		{
			OFFSET -3.52197 -3.41223 0.04002
			CHANNELS 3 Zrotation Yrotation Xrotation
			JOINT rightleg
			{
				OFFSET 0.00006 -17.42390 1.60435
				CHANNELS 3 Zrotation Yrotation Xrotation
				JOINT rightfoot
				{
					OFFSET 0.06153 -16.50078 -1.63901
					CHANNELS 3 Zrotation Yrotation Xrotation
					JOINT righttoes
					{
						OFFSET 0.00298 -1.73825 3.34613
						CHANNELS 3 Zrotation Yrotation Xrotation
						End Site
						{
							OFFSET 0.00480 -0.05416 3.85043
						}
					}
				}
			}
		}
	}
	JOINT spinedummy
	{
		OFFSET 0 0 0
		CHANNELS 3 Zrotation Yrotation Xrotation
		JOINT spine
		{
			OFFSET 0.00000 4.68130 0.00000
			CHANNELS 3 Zrotation Yrotation Xrotation
			JOINT spine1
			{
				OFFSET -0.00000 10.10138 0.05002
				CHANNELS 3 Zrotation Yrotation Xrotation
				JOINT headdummy
				{
					OFFSET 0 0 0
					CHANNELS 3 Zrotation Yrotation Xrotation
					JOINT head
					{
						OFFSET -0.00000 3.43865 0.00438
						CHANNELS 3 Zrotation Yrotation Xrotation
						End Site
						{
							OFFSET -0.11417 5.02924 0.98962
						}
					}
				}
				JOINT leftshoulder1dummy
				{
					OFFSET 0 0 0
					CHANNELS 3 Zrotation Yrotation Xrotation
					JOINT leftshoulder1
					{
						OFFSET 3.53937 -0.14262 -0.08662
						CHANNELS 3 Zrotation Yrotation Xrotation
						JOINT leftarm
						{
							OFFSET 4.04833 -0.00133 0.12681
							CHANNELS 3 Zrotation Yrotation Xrotation
							JOINT leftforearm
							{
								OFFSET 10.33880 -0.01036 -0.55515
								CHANNELS 3 Zrotation Yrotation Xrotation
								JOINT lefthand
								{
									OFFSET 8.69677 0.07543 0.40060
									CHANNELS 3 Zrotation Yrotation Xrotation
									End Site
									{
										OFFSET 5.28377 -0.21905 0.59205
									}
								}
							}
						}
					}
				}
				JOINT rightshoulderdummy
				{
					OFFSET 0 0 0
					CHANNELS 3 Zrotation Yrotation Xrotation
					JOINT rightshoulder
					{
						OFFSET -3.53937 -0.14262 -0.08660
						CHANNELS 3 Zrotation Yrotation Xrotation
						JOINT rightarm
						{
							OFFSET -4.04833 -0.00133 0.12683
							CHANNELS 3 Zrotation Yrotation Xrotation
							JOINT rightforearm
							{
								OFFSET -10.37987 -0.01039 -0.55511
								CHANNELS 3 Zrotation Yrotation Xrotation
								JOINT righthand
								{
									OFFSET -8.67398 0.07538 0.40058
									CHANNELS 3 Zrotation Yrotation Xrotation
									End Site
									{
										OFFSET -5.24810 -0.21916 0.59204
									}
								}
							}
						}
					}
				}
			}
		}
	}
	JOINT leftuplegdummy
	{
		OFFSET 0 0 0
		CHANNELS 3 Zrotation Yrotation Xrotation
		JOINT leftupleg
		{
			OFFSET 3.52197 -3.41223 0.04002
			CHANNELS 3 Zrotation Yrotation Xrotation
			JOINT leftleg
			{
				OFFSET -0.00012 -17.42399 1.60337
				CHANNELS 3 Zrotation Yrotation Xrotation
				JOINT leftfoot
				{
					OFFSET -0.09972 -16.50070 -1.63802
					CHANNELS 3 Zrotation Yrotation Xrotation
					JOINT lefttoes
					{
						OFFSET -0.01575 -1.73823 3.34611
						CHANNELS 3 Zrotation Yrotation Xrotation
						End Site
						{
							OFFSET 0.03150 -0.01868 3.85031
						}
					}
				}
			}
		}
	}
}
MOTION
Frames: 18
Frame Time: 0.033333
-0.0653 37.2862 55.7416 173.3990 50.5926 168.1000 0.0000 -0.0000 0.0000 -24.3384 -11.5176 2.2017 6.5147 7.8153 35.1620 19.0997 0.8910 -17.1135 0.0000 0.0000 -0.0000 0.0000 -0.0000 0.0000 -1.5182 2.1421 6.4297 -1.5393 1.8850 15.3154 -0.0000 -0.0000 -0.0000 -20.4952 41.4909 -8.1813 -0.0000 -0.0000 -0.0000 -19.1798 -2.1874 1.4626 -37.4448 -7.6995 14.7096 1.6947 -78.1427 15.9266 3.6929 6.7960 -0.0086 -0.0000 -0.0000 -0.0000 25.1118 4.7094 2.5688 38.6102 0.1857 8.2587 176.4864 80.6665 173.5950 3.2444 -8.9321 -0.1815 0.0000 -0.0000 0.0000 7.5421 10.9265 -11.9657 -2.2918 -3.0701 35.7410 -10.8898 0.1743 -10.0671 0.0000 -0.0000 -0.0000
-0.1232 36.1038 56.8026 174.5930 51.1423 168.5710 0.0000 -0.0000 0.0000 -22.1943 -12.0012 -1.2844 7.1180 6.7561 42.0507 15.3588 1.7254 -24.7676 0.0000 0.0000 -0.0000 0.0000 -0.0000 0.0000 -2.7862 1.8475 7.0880 0.3156 0.9528 18.0405 -0.0000 -0.0000 -0.0000 -24.8700 42.2410 -13.9359 -0.0000 -0.0000 -0.0000 -20.2599 -2.1777 1.5173 -34.7860 -12.1600 10.6033 4.0712 -75.3809 28.2863 0.8514 8.2608 -0.0497 -0.0000 -0.0000 -0.0000 26.2724 4.7766 2.6822 36.8628 11.9056 6.5791 168.5582 89.5411 176.0965 -2.9479 -11.5719 0.0620 0.0000 -0.0000 0.0000 10.2036 12.1684 -16.5095 -4.0576 -3.9141 43.4831 -12.6122 -0.0012 -12.0006 0.0000 -0.0000 -0.0000
0.0141 36.3197 57.5838 175.6510 51.5121 169.4310 0.0000 -0.0000 0.0000 -20.1227 -12.7448 -1.9426 7.0199 6.7565 41.7263 14.7299 1.5529 -24.0286 0.0000 0.0000 -0.0000 0.0000 -0.0000 0.0000 -2.4833 1.4552 6.9538 0.1630 0.6628 19.4112 -0.0000 -0.0000 -0.0000 -27.6854 43.1220 -16.4297 -0.0000 -0.0000 -0.0000 -20.7784 -2.1721 1.5433 -37.9204 -11.3907 7.4456 6.6530 -76.2020 39.2634 1.9218 8.5769 -0.0177 -0.0000 -0.0000 -0.0000 27.2521 4.9998 2.8347 41.1076 15.8804 6.1220 -12.0387 87.8148 7.1162 -11.1506 -13.6336 0.6922 0.0000 -0.0000 0.0000 11.9760 12.0563 -16.1084 -3.7740 -3.9428 41.1437 -13.5600 0.2170 -10.0195 0.0000 -0.0000 -0.0000
0.3279 37.7868 57.9300 176.6160 51.3349 171.0600 0.0000 -0.0000 0.0000 -18.9323 -15.4373 1.4673 7.5778 9.9398 32.9388 15.4495 0.7574 -17.3550 0.0000 0.0000 -0.0000 0.0000 -0.0000 0.0000 -1.3819 1.4213 5.7231 -0.2841 1.0182 18.4480 -0.0000 -0.0000 -0.0000 -25.2465 43.9313 -12.6411 -0.0000 -0.0000 -0.0000 -21.0401 -2.1212 1.5433 -44.2226 -6.7391 8.2924 7.1867 -79.0044 33.1488 6.0623 8.7371 0.1014 -0.0000 -0.0000 -0.0000 27.7983 5.0057 2.8818 45.9655 9.4381 6.9647 -178.1905 86.5573 -164.9096 -17.1975 -12.4044 0.9819 0.0000 -0.0000 0.0000 12.2994 9.1674 -11.5895 -0.3627 -0.9444 29.4089 -13.9911 1.1418 -2.2154 0.0000 -0.0000 -0.0000
0.6209 39.4487 58.1276 176.9300 52.9785 172.6780 0.0000 -0.0000 0.0000 -17.6385 -16.5221 3.9353 6.7005 13.0694 22.5474 15.8677 -0.6331 -6.9628 0.0000 0.0000 -0.0000 0.0000 -0.0000 0.0000 -0.5616 2.1859 4.4582 -0.6838 2.2201 16.1058 -0.0000 -0.0000 -0.0000 -21.1362 44.5933 -8.5742 -0.0000 -0.0000 -0.0000 -22.0502 -2.1990 1.6189 -47.9396 0.5044 9.4249 7.7528 -83.4961 21.1986 3.9525 6.4956 -0.0106 -0.0000 -0.0000 -0.0000 28.7443 5.0214 2.9659 46.2575 0.8814 9.1141 177.9400 79.8484 179.8076 -12.6868 -11.1508 0.5573 0.0000 -0.0000 0.0000 12.1028 9.1772 -7.0830 2.2451 4.7735 17.8458 -13.4771 2.3908 9.2094 0.0000 -0.0000 -0.0000
0.7588 40.5881 58.4375 175.6890 56.0037 172.8900 0.0000 -0.0000 0.0000 -16.7346 -14.3687 3.0558 5.1983 12.8257 17.3202 18.1455 -1.8880 0.4548 0.0000 0.0000 -0.0000 0.0000 -0.0000 0.0000 -0.8528 3.0968 3.5843 -1.7021 3.5454 14.3101 -0.0000 -0.0000 -0.0000 -19.7545 45.0661 -8.8275 -0.0000 -0.0000 -0.0000 -22.2110 -2.3275 1.6640 -49.6311 6.7064 9.9208 16.0188 -87.7363 6.9485 -1.5527 4.2230 -0.0224 -0.0000 -0.0000 -0.0000 28.8080 5.1187 3.0050 44.9523 -4.1280 12.0044 178.3281 75.5552 178.7009 0.5061 -9.3814 -0.1002 0.0000 -0.0000 0.0000 11.4054 10.7637 -4.6784 1.9686 8.8872 13.3938 -11.9674 2.4781 12.7076 0.0000 -0.0000 -0.0000
0.7205 41.0245 58.8461 174.3110 57.2479 172.3420 0.0000 -0.0000 0.0000 -16.4915 -12.7644 1.2476 4.4091 10.3014 18.6696 18.7567 -2.1077 1.4009 0.0000 0.0000 -0.0000 0.0000 -0.0000 0.0000 -1.2731 3.0313 2.9023 -2.8604 3.8128 14.3773 -0.0000 -0.0000 -0.0000 -20.7356 45.0915 -11.8380 -0.0000 -0.0000 -0.0000 -20.6954 -2.3610 1.5901 -50.0896 7.8127 11.9445 66.3988 -89.3986 -45.1667 -2.1992 3.2043 0.0110 -0.0000 -0.0000 -0.0000 27.5336 5.0621 2.8791 44.2765 -5.0567 13.7620 178.8445 72.6561 -179.3202 10.7827 -6.6649 -0.1972 0.0000 -0.0000 0.0000 9.4352 12.3903 -4.5537 1.1053 4.3718 16.3448 -11.6449 2.1566 10.1890 0.0000 -0.0000 -0.0000
0.5659 40.7766 59.3007 173.7410 56.7959 171.4170 0.0000 -0.0000 0.0000 -16.6569 -12.5987 0.3218 5.1609 9.4491 24.0525 15.9177 -1.5389 -0.3806 0.0000 0.0000 -0.0000 0.0000 -0.0000 0.0000 -1.2368 2.2065 3.5121 -3.6759 3.1677 14.7467 -0.0000 -0.0000 -0.0000 -22.0336 45.2984 -14.4372 -0.0000 -0.0000 -0.0000 -19.5391 -2.4420 1.5477 -48.1365 5.2138 14.0781 93.0403 -89.4165 -71.2096 0.0066 3.4267 -0.0295 -0.0000 -0.0000 -0.0000 26.4784 4.9464 2.7538 43.2325 -3.5900 14.1657 178.6884 71.0619 178.7559 11.9337 -7.5697 -0.3000 0.0000 -0.0000 0.0000 7.7001 12.3823 -5.0830 0.5232 0.1120 23.1603 -12.2378 2.1681 9.1898 0.0000 -0.0000 -0.0000
0.4395 39.9440 59.7728 172.8940 56.6680 169.4680 0.0000 -0.0000 0.0000 -17.3846 -11.9009 0.8862 7.4568 11.2709 28.8504 13.7298 -0.7814 -5.0006 0.0000 0.0000 -0.0000 0.0000 -0.0000 0.0000 -1.7758 1.7526 5.1787 -3.8803 2.5331 14.1844 -0.0000 -0.0000 -0.0000 -22.7816 45.8055 -15.5047 -0.0000 -0.0000 -0.0000 -19.5779 -2.6326 1.5996 -44.6096 1.4740 14.4797 15.4665 -87.9704 5.5427 1.4923 3.7293 -0.0530 -0.0000 -0.0000 -0.0000 25.8039 4.9480 2.6995 41.8032 -1.8437 13.1048 178.5529 71.4845 177.6719 8.9458 -7.5828 -0.2483 0.0000 -0.0000 0.0000 6.9500 13.4137 -4.3872 1.8836 2.2007 28.5184 -12.8633 1.7588 4.4121 0.0000 -0.0000 -0.0000
0.3496 38.7315 60.2255 173.0420 57.0136 168.7870 0.0000 -0.0000 0.0000 -17.0255 -10.7725 1.4614 8.6166 11.8558 31.4287 12.4245 0.2887 -14.4906 0.0000 0.0000 -0.0000 0.0000 -0.0000 0.0000 -2.0063 1.4955 5.6868 -3.6043 1.9665 14.5525 -0.0000 -0.0000 -0.0000 -24.0780 46.1083 -17.2826 -0.0000 -0.0000 -0.0000 -20.0929 -2.6564 1.6354 -40.3145 -3.9865 13.4022 4.6595 -83.8766 15.6216 2.5145 4.6856 -0.0537 -0.0000 -0.0000 -0.0000 25.4824 4.8986 2.6579 39.4748 1.7970 10.2065 177.7335 75.2754 174.6639 5.6282 -6.6340 -0.1244 0.0000 -0.0000 0.0000 7.3818 15.4447 -3.8091 3.8023 4.5737 31.1588 -13.4215 0.6307 -6.2997 0.0000 -0.0000 -0.0000
0.1728 37.6840 60.6334 174.9970 57.3380 170.4680 0.0000 -0.0000 0.0000 -15.0704 -10.5474 -0.0468 7.9241 9.9292 34.0383 10.7099 0.9581 -22.3766 0.0000 0.0000 -0.0000 0.0000 -0.0000 0.0000 -1.0990 0.6492 5.4482 -3.2457 1.0046 15.9434 -0.0000 -0.0000 -0.0000 -27.4768 46.6996 -21.6997 -0.0000 -0.0000 -0.0000 -21.5510 -2.5347 1.6857 -35.9435 -8.3204 9.6313 5.6499 -81.4524 22.0577 2.8855 6.2228 -0.0300 -0.0000 -0.0000 -0.0000 26.6002 4.8748 2.7407 37.1587 8.5244 7.4783 175.0856 83.3864 173.5728 -0.7964 -8.4557 -0.0456 0.0000 -0.0000 0.0000 8.8473 15.3619 -5.6130 4.1399 4.4517 34.4937 -14.1530 -0.1970 -13.5975 0.0000 -0.0000 -0.0000
-0.0314 37.4645 60.8608 176.1050 57.2922 171.8360 0.0000 -0.0000 0.0000 -14.0870 -11.3175 -1.6588 7.9804 9.4382 35.6480 10.0908 0.9669 -23.1818 0.0000 0.0000 -0.0000 0.0000 -0.0000 0.0000 -0.7728 -0.0171 6.0828 -2.2825 0.0870 16.1380 -0.0000 -0.0000 -0.0000 -31.2787 47.1731 -25.8148 -0.0000 -0.0000 -0.0000 -23.1065 -2.5605 1.7818 -35.9680 -7.8537 5.6619 8.7513 -82.0688 27.5384 6.3870 7.6499 0.0715 -0.0000 -0.0000 -0.0000 28.3546 5.0964 2.9593 38.7076 12.2429 6.0719 -11.0678 89.0215 1.8922 -10.2690 -12.2861 0.5451 0.0000 -0.0000 0.0000 9.6906 15.2062 -8.9277 3.6136 3.2502 38.8878 -14.5585 -0.0834 -12.6164 0.0000 -0.0000 -0.0000
-0.0902 38.2985 60.7131 175.0680 56.5359 172.0010 0.0000 -0.0000 0.0000 -15.0060 -12.4859 -0.0075 7.6815 11.0774 30.2562 11.3800 0.6339 -18.3739 0.0000 0.0000 -0.0000 0.0000 -0.0000 0.0000 -1.2429 0.3605 6.3069 -0.8645 0.2087 14.8951 -0.0000 -0.0000 -0.0000 -31.5319 46.5231 -25.3807 -0.0000 -0.0000 -0.0000 -22.7324 -2.5424 1.7550 -41.1684 -4.5927 6.5663 8.7313 -83.1995 23.3635 12.7322 8.2561 0.2560 -0.0000 -0.0000 -0.0000 29.3547 5.2812 3.1085 43.0758 7.2430 4.4411 -26.2287 88.2252 -0.1230 -18.2080 -14.3731 1.3400 0.0000 -0.0000 0.0000 8.7743 16.7391 -11.4840 2.3917 1.9550 39.7571 -13.6572 0.8921 -4.0465 0.0000 -0.0000 -0.0000
-0.0796 39.4565 60.2868 173.3590 55.8820 172.6770 0.0000 -0.0000 0.0000 -16.0842 -13.5702 2.9115 5.0173 11.4089 19.1231 13.7979 -0.0164 -11.5636 0.0000 0.0000 -0.0000 0.0000 -0.0000 0.0000 -0.8333 1.1729 5.3336 -0.9417 1.3384 12.7877 -0.0000 -0.0000 -0.0000 -28.5729 45.4200 -21.9100 -0.0000 -0.0000 -0.0000 -21.8559 -2.3737 1.6576 -44.2392 -0.1106 9.4260 8.0576 -85.1252 16.2511 10.8736 6.5042 0.0610 -0.0000 -0.0000 -0.0000 30.2760 5.3762 3.2225 45.2835 -2.2089 3.5685 -160.9720 88.0904 -138.1914 -18.0225 -11.4300 0.8826 0.0000 -0.0000 0.0000 6.9477 19.0582 -13.3294 -0.8850 -1.4140 36.6399 -12.8997 1.8007 4.7508 0.0000 -0.0000 -0.0000
-0.2109 40.1700 59.8345 171.9140 56.0010 173.8790 0.0000 -0.0000 0.0000 -16.9427 -12.7028 2.9416 3.5742 9.7512 13.7215 16.9592 -0.6806 -6.9249 0.0000 0.0000 -0.0000 0.0000 -0.0000 0.0000 0.3038 1.7244 4.4819 -2.5219 2.4134 10.6406 -0.0000 -0.0000 -0.0000 -26.4754 44.5526 -19.7842 -0.0000 -0.0000 -0.0000 -22.2673 -2.3620 1.6771 -43.0944 4.9276 9.4027 20.0950 -88.1635 2.8767 3.1694 4.0454 -0.0693 -0.0000 -0.0000 -0.0000 30.3346 5.4522 3.2552 45.2220 -8.7204 4.8248 -176.1212 86.8352 -162.1797 -8.4567 -8.4288 0.1553 0.0000 -0.0000 0.0000 5.3190 21.3711 -15.5025 -4.2830 -5.8547 32.9272 -13.5755 1.9676 5.3886 0.0000 -0.0000 -0.0000
-0.4706 40.2770 59.5386 170.3340 55.2485 173.9570 0.0000 -0.0000 0.0000 -18.6537 -12.2194 1.5540 4.6383 11.1578 17.7703 19.1108 -0.7963 -6.7288 0.0000 0.0000 -0.0000 0.0000 -0.0000 0.0000 -0.0205 1.9353 4.4591 -3.5414 2.6937 10.1581 -0.0000 -0.0000 -0.0000 -26.5568 42.8208 -20.0170 -0.0000 -0.0000 -0.0000 -22.1579 -2.5245 1.7170 -41.7297 6.6885 8.6867 28.0175 -88.7872 -6.3272 3.1359 2.9614 -0.0937 -0.0000 -0.0000 -0.0000 28.6141 5.4101 3.0898 45.0472 -11.0925 6.9370 -176.2873 87.3853 -163.3502 0.3017 -5.2869 -0.0351 0.0000 -0.0000 0.0000 3.7441 23.8245 -17.9953 -3.9771 -6.3094 28.8904 -14.0154 1.6257 1.9119 0.0000 -0.0000 -0.0000
-0.7161 39.7823 59.3880 169.9240 51.9105 174.2100 0.0000 -0.0000 0.0000 -20.2467 -13.5322 3.4424 5.9673 12.8275 20.3703 17.1913 -0.3498 -9.2767 0.0000 0.0000 -0.0000 0.0000 -0.0000 0.0000 -1.1272 1.5521 5.4146 -3.1401 2.0037 10.2307 -0.0000 -0.0000 -0.0000 -26.4152 39.9570 -20.5849 -0.0000 -0.0000 -0.0000 -20.8410 -2.5623 1.6529 -39.7369 3.6722 9.8231 6.7223 -87.0449 10.2890 8.4862 4.3229 -0.1055 -0.0000 -0.0000 -0.0000 27.3873 5.3058 2.9482 43.9980 -12.8054 7.9378 -177.5067 85.6360 -163.9336 1.7610 -2.9559 0.0064 0.0000 -0.0000 0.0000 1.8486 27.2446 -21.3299 -1.5377 -3.4297 23.7088 -11.5246 1.2620 1.2049 0.0000 -0.0000 -0.0000
-0.9317 39.0010 59.1205 172.7960 47.6779 177.3780 0.0000 -0.0000 0.0000 -18.9591 -17.0583 7.3228 4.7273 11.7900 16.5501 15.3580 0.3113 -14.0399 0.0000 0.0000 -0.0000 0.0000 -0.0000 0.0000 0.6540 0.5918 6.2868 -2.1646 0.9648 9.5500 -0.0000 -0.0000 -0.0000 -25.9605 37.3857 -21.5177 -0.0000 -0.0000 -0.0000 -21.1984 -2.6390 1.6943 -35.2210 0.0107 9.1302 3.4945 -85.2721 12.2524 10.6160 5.1579 -0.0557 -0.0000 -0.0000 -0.0000 27.9325 5.3409 3.0068 40.7230 -11.2424 8.0526 -178.3233 87.1943 -167.1440 -1.2211 -3.8802 -0.0488 0.0000 -0.0000 0.0000 -0.0950 32.7071 -26.4215 -0.8107 -1.2069 17.7472 -8.6891 0.9941 1.8412 0.0000 -0.0000 -0.0000
